<svg xmlns="http://www.w3.org/2000/svg" style="display:none" aria-hidden="true">
<!-- Lucide icons (ISC licence), subset -->
<symbol id="i-search" viewBox="0 0 24 24" fill="none" stroke="currentColor" stroke-width="2" stroke-linecap="round" stroke-linejoin="round"><circle cx="11" cy="11" r="8" /> <path d="m21 21-4.3-4.3" /></symbol>
<symbol id="i-calendar" viewBox="0 0 24 24" fill="none" stroke="currentColor" stroke-width="2" stroke-linecap="round" stroke-linejoin="round"><path d="M8 2v4" /> <path d="M16 2v4" /> <rect width="18" height="18" x="3" y="4" rx="2" /> <path d="M3 10h18" /></symbol>
<symbol id="i-calendar-days" viewBox="0 0 24 24" fill="none" stroke="currentColor" stroke-width="2" stroke-linecap="round" stroke-linejoin="round"><path d="M8 2v4" /> <path d="M16 2v4" /> <rect width="18" height="18" x="3" y="4" rx="2" /> <path d="M3 10h18" /> <path d="M8 14h.01" /> <path d="M12 14h.01" /> <path d="M16 14h.01" /> <path d="M8 18h.01" /> <path d="M12 18h.01" /> <path d="M16 18h.01" /></symbol>
<symbol id="i-calendar-check" viewBox="0 0 24 24" fill="none" stroke="currentColor" stroke-width="2" stroke-linecap="round" stroke-linejoin="round"><path d="M8 2v4" /> <path d="M16 2v4" /> <rect width="18" height="18" x="3" y="4" rx="2" /> <path d="M3 10h18" /> <path d="m9 16 2 2 4-4" /></symbol>
<symbol id="i-calendar-plus" viewBox="0 0 24 24" fill="none" stroke="currentColor" stroke-width="2" stroke-linecap="round" stroke-linejoin="round"><path d="M8 2v4" /> <path d="M16 2v4" /> <path d="M21 13V6a2 2 0 0 0-2-2H5a2 2 0 0 0-2 2v14a2 2 0 0 0 2 2h8" /> <path d="M3 10h18" /> <path d="M16 19h6" /> <path d="M19 16v6" /></symbol>
<symbol id="i-calendar-x" viewBox="0 0 24 24" fill="none" stroke="currentColor" stroke-width="2" stroke-linecap="round" stroke-linejoin="round"><path d="M8 2v4" /> <path d="M16 2v4" /> <rect width="18" height="18" x="3" y="4" rx="2" /> <path d="M3 10h18" /> <path d="m14 14-4 4" /> <path d="m10 14 4 4" /></symbol>
<symbol id="i-clock" viewBox="0 0 24 24" fill="none" stroke="currentColor" stroke-width="2" stroke-linecap="round" stroke-linejoin="round"><circle cx="12" cy="12" r="10" /> <polyline points="12 6 12 12 16 14" /></symbol>
<symbol id="i-map-pin" viewBox="0 0 24 24" fill="none" stroke="currentColor" stroke-width="2" stroke-linecap="round" stroke-linejoin="round"><path d="M20 10c0 4.993-5.539 10.193-7.399 11.799a1 1 0 0 1-1.202 0C9.539 20.193 4 14.993 4 10a8 8 0 0 1 16 0" /> <circle cx="12" cy="10" r="3" /></symbol>
<symbol id="i-users" viewBox="0 0 24 24" fill="none" stroke="currentColor" stroke-width="2" stroke-linecap="round" stroke-linejoin="round"><path d="M16 21v-2a4 4 0 0 0-4-4H6a4 4 0 0 0-4 4v2" /> <circle cx="9" cy="7" r="4" /> <path d="M22 21v-2a4 4 0 0 0-3-3.87" /> <path d="M16 3.13a4 4 0 0 1 0 7.75" /></symbol>
<symbol id="i-user" viewBox="0 0 24 24" fill="none" stroke="currentColor" stroke-width="2" stroke-linecap="round" stroke-linejoin="round"><path d="M19 21v-2a4 4 0 0 0-4-4H9a4 4 0 0 0-4 4v2" /> <circle cx="12" cy="7" r="4" /></symbol>
<symbol id="i-door-open" viewBox="0 0 24 24" fill="none" stroke="currentColor" stroke-width="2" stroke-linecap="round" stroke-linejoin="round"><path d="M13 4h3a2 2 0 0 1 2 2v14" /> <path d="M2 20h3" /> <path d="M13 20h9" /> <path d="M10 12v.01" /> <path d="M13 4.562v16.157a1 1 0 0 1-1.242.97L5 20V5.562a2 2 0 0 1 1.515-1.94l4-1A2 2 0 0 1 13 4.561Z" /></symbol>
<symbol id="i-presentation" viewBox="0 0 24 24" fill="none" stroke="currentColor" stroke-width="2" stroke-linecap="round" stroke-linejoin="round"><path d="M2 3h20" /> <path d="M21 3v11a2 2 0 0 1-2 2H5a2 2 0 0 1-2-2V3" /> <path d="m7 21 5-5 5 5" /></symbol>
<symbol id="i-monitor" viewBox="0 0 24 24" fill="none" stroke="currentColor" stroke-width="2" stroke-linecap="round" stroke-linejoin="round"><rect width="20" height="14" x="2" y="3" rx="2" /> <line x1="8" x2="16" y1="21" y2="21" /> <line x1="12" x2="12" y1="17" y2="21" /></symbol>
<symbol id="i-cpu" viewBox="0 0 24 24" fill="none" stroke="currentColor" stroke-width="2" stroke-linecap="round" stroke-linejoin="round"><rect width="16" height="16" x="4" y="4" rx="2" /> <rect width="6" height="6" x="9" y="9" rx="1" /> <path d="M15 2v2" /> <path d="M15 20v2" /> <path d="M2 15h2" /> <path d="M2 9h2" /> <path d="M20 15h2" /> <path d="M20 9h2" /> <path d="M9 2v2" /> <path d="M9 20v2" /></symbol>
<symbol id="i-mic" viewBox="0 0 24 24" fill="none" stroke="currentColor" stroke-width="2" stroke-linecap="round" stroke-linejoin="round"><path d="M12 2a3 3 0 0 0-3 3v7a3 3 0 0 0 6 0V5a3 3 0 0 0-3-3Z" /> <path d="M19 10v2a7 7 0 0 1-14 0v-2" /> <line x1="12" x2="12" y1="19" y2="22" /></symbol>
<symbol id="i-trophy" viewBox="0 0 24 24" fill="none" stroke="currentColor" stroke-width="2" stroke-linecap="round" stroke-linejoin="round"><path d="M6 9H4.5a2.5 2.5 0 0 1 0-5H6" /> <path d="M18 9h1.5a2.5 2.5 0 0 0 0-5H18" /> <path d="M4 22h16" /> <path d="M10 14.66V17c0 .55-.47.98-.97 1.21C7.85 18.75 7 20.24 7 22" /> <path d="M14 14.66V17c0 .55.47.98.97 1.21C16.15 18.75 17 20.24 17 22" /> <path d="M18 2H6v7a6 6 0 0 0 12 0V2Z" /></symbol>
<symbol id="i-camera" viewBox="0 0 24 24" fill="none" stroke="currentColor" stroke-width="2" stroke-linecap="round" stroke-linejoin="round"><path d="M14.5 4h-5L7 7H4a2 2 0 0 0-2 2v9a2 2 0 0 0 2 2h16a2 2 0 0 0 2-2V9a2 2 0 0 0-2-2h-3l-2.5-3z" /> <circle cx="12" cy="13" r="3" /></symbol>
<symbol id="i-bus" viewBox="0 0 24 24" fill="none" stroke="currentColor" stroke-width="2" stroke-linecap="round" stroke-linejoin="round"><path d="M8 6v6" /> <path d="M15 6v6" /> <path d="M2 12h19.6" /> <path d="M18 18h3s.5-1.7.8-2.8c.1-.4.2-.8.2-1.2 0-.4-.1-.8-.2-1.2l-1.4-5C20.1 6.8 19.1 6 18 6H4a2 2 0 0 0-2 2v10h3" /> <circle cx="7" cy="18" r="2" /> <path d="M9 18h5" /> <circle cx="16" cy="18" r="2" /></symbol>
<symbol id="i-palette" viewBox="0 0 24 24" fill="none" stroke="currentColor" stroke-width="2" stroke-linecap="round" stroke-linejoin="round"><circle cx="13.5" cy="6.5" r=".5" fill="currentColor" /> <circle cx="17.5" cy="10.5" r=".5" fill="currentColor" /> <circle cx="8.5" cy="7.5" r=".5" fill="currentColor" /> <circle cx="6.5" cy="12.5" r=".5" fill="currentColor" /> <path d="M12 2C6.5 2 2 6.5 2 12s4.5 10 10 10c.926 0 1.648-.746 1.648-1.688 0-.437-.18-.835-.437-1.125-.29-.289-.438-.652-.438-1.125a1.64 1.64 0 0 1 1.668-1.668h1.996c3.051 0 5.555-2.503 5.555-5.554C21.965 6.012 17.461 2 12 2z" /></symbol>
<symbol id="i-box" viewBox="0 0 24 24" fill="none" stroke="currentColor" stroke-width="2" stroke-linecap="round" stroke-linejoin="round"><path d="M21 8a2 2 0 0 0-1-1.73l-7-4a2 2 0 0 0-2 0l-7 4A2 2 0 0 0 3 8v8a2 2 0 0 0 1 1.73l7 4a2 2 0 0 0 2 0l7-4A2 2 0 0 0 21 16Z" /> <path d="m3.3 7 8.7 5 8.7-5" /> <path d="M12 22V12" /></symbol>
<symbol id="i-check" viewBox="0 0 24 24" fill="none" stroke="currentColor" stroke-width="2" stroke-linecap="round" stroke-linejoin="round"><path d="M20 6 9 17l-5-5" /></symbol>
<symbol id="i-x" viewBox="0 0 24 24" fill="none" stroke="currentColor" stroke-width="2" stroke-linecap="round" stroke-linejoin="round"><path d="M18 6 6 18" /> <path d="m6 6 12 12" /></symbol>
<symbol id="i-chevron-left" viewBox="0 0 24 24" fill="none" stroke="currentColor" stroke-width="2" stroke-linecap="round" stroke-linejoin="round"><path d="m15 18-6-6 6-6" /></symbol>
<symbol id="i-chevron-right" viewBox="0 0 24 24" fill="none" stroke="currentColor" stroke-width="2" stroke-linecap="round" stroke-linejoin="round"><path d="m9 18 6-6-6-6" /></symbol>
<symbol id="i-chevron-down" viewBox="0 0 24 24" fill="none" stroke="currentColor" stroke-width="2" stroke-linecap="round" stroke-linejoin="round"><path d="m6 9 6 6 6-6" /></symbol>
<symbol id="i-chevron-up" viewBox="0 0 24 24" fill="none" stroke="currentColor" stroke-width="2" stroke-linecap="round" stroke-linejoin="round"><path d="m18 15-6-6-6 6" /></symbol>
<symbol id="i-plus" viewBox="0 0 24 24" fill="none" stroke="currentColor" stroke-width="2" stroke-linecap="round" stroke-linejoin="round"><path d="M5 12h14" /> <path d="M12 5v14" /></symbol>
<symbol id="i-minus" viewBox="0 0 24 24" fill="none" stroke="currentColor" stroke-width="2" stroke-linecap="round" stroke-linejoin="round"><path d="M5 12h14" /></symbol>
<symbol id="i-bell" viewBox="0 0 24 24" fill="none" stroke="currentColor" stroke-width="2" stroke-linecap="round" stroke-linejoin="round"><path d="M6 8a6 6 0 0 1 12 0c0 7 3 9 3 9H3s3-2 3-9" /> <path d="M10.3 21a1.94 1.94 0 0 0 3.4 0" /></symbol>
<symbol id="i-qr-code" viewBox="0 0 24 24" fill="none" stroke="currentColor" stroke-width="2" stroke-linecap="round" stroke-linejoin="round"><rect width="5" height="5" x="3" y="3" rx="1" /> <rect width="5" height="5" x="16" y="3" rx="1" /> <rect width="5" height="5" x="3" y="16" rx="1" /> <path d="M21 16h-3a2 2 0 0 0-2 2v3" /> <path d="M21 21v.01" /> <path d="M12 7v3a2 2 0 0 1-2 2H7" /> <path d="M3 12h.01" /> <path d="M12 3h.01" /> <path d="M12 16v.01" /> <path d="M16 12h1" /> <path d="M21 12v.01" /> <path d="M12 21v-1" /></symbol>
<symbol id="i-scan-line" viewBox="0 0 24 24" fill="none" stroke="currentColor" stroke-width="2" stroke-linecap="round" stroke-linejoin="round"><path d="M3 7V5a2 2 0 0 1 2-2h2" /> <path d="M17 3h2a2 2 0 0 1 2 2v2" /> <path d="M21 17v2a2 2 0 0 1-2 2h-2" /> <path d="M7 21H5a2 2 0 0 1-2-2v-2" /> <path d="M7 12h10" /></symbol>
<symbol id="i-log-out" viewBox="0 0 24 24" fill="none" stroke="currentColor" stroke-width="2" stroke-linecap="round" stroke-linejoin="round"><path d="M9 21H5a2 2 0 0 1-2-2V5a2 2 0 0 1 2-2h4" /> <polyline points="16 17 21 12 16 7" /> <line x1="21" x2="9" y1="12" y2="12" /></symbol>
<symbol id="i-settings" viewBox="0 0 24 24" fill="none" stroke="currentColor" stroke-width="2" stroke-linecap="round" stroke-linejoin="round"><path d="M12.22 2h-.44a2 2 0 0 0-2 2v.18a2 2 0 0 1-1 1.73l-.43.25a2 2 0 0 1-2 0l-.15-.08a2 2 0 0 0-2.73.73l-.22.38a2 2 0 0 0 .73 2.73l.15.1a2 2 0 0 1 1 1.72v.51a2 2 0 0 1-1 1.74l-.15.09a2 2 0 0 0-.73 2.73l.22.38a2 2 0 0 0 2.73.73l.15-.08a2 2 0 0 1 2 0l.43.25a2 2 0 0 1 1 1.73V20a2 2 0 0 0 2 2h.44a2 2 0 0 0 2-2v-.18a2 2 0 0 1 1-1.73l.43-.25a2 2 0 0 1 2 0l.15.08a2 2 0 0 0 2.73-.73l.22-.39a2 2 0 0 0-.73-2.73l-.15-.08a2 2 0 0 1-1-1.74v-.5a2 2 0 0 1 1-1.74l.15-.09a2 2 0 0 0 .73-2.73l-.22-.38a2 2 0 0 0-2.73-.73l-.15.08a2 2 0 0 1-2 0l-.43-.25a2 2 0 0 1-1-1.73V4a2 2 0 0 0-2-2z" /> <circle cx="12" cy="12" r="3" /></symbol>
<symbol id="i-sliders-horizontal" viewBox="0 0 24 24" fill="none" stroke="currentColor" stroke-width="2" stroke-linecap="round" stroke-linejoin="round"><line x1="21" x2="14" y1="4" y2="4" /> <line x1="10" x2="3" y1="4" y2="4" /> <line x1="21" x2="12" y1="12" y2="12" /> <line x1="8" x2="3" y1="12" y2="12" /> <line x1="21" x2="16" y1="20" y2="20" /> <line x1="12" x2="3" y1="20" y2="20" /> <line x1="14" x2="14" y1="2" y2="6" /> <line x1="8" x2="8" y1="10" y2="14" /> <line x1="16" x2="16" y1="18" y2="22" /></symbol>
<symbol id="i-layout-dashboard" viewBox="0 0 24 24" fill="none" stroke="currentColor" stroke-width="2" stroke-linecap="round" stroke-linejoin="round"><rect width="7" height="9" x="3" y="3" rx="1" /> <rect width="7" height="5" x="14" y="3" rx="1" /> <rect width="7" height="9" x="14" y="12" rx="1" /> <rect width="7" height="5" x="3" y="16" rx="1" /></symbol>
<symbol id="i-chart-column" viewBox="0 0 24 24" fill="none" stroke="currentColor" stroke-width="2" stroke-linecap="round" stroke-linejoin="round"><path d="M3 3v16a2 2 0 0 0 2 2h16" /> <path d="M18 17V9" /> <path d="M13 17V5" /> <path d="M8 17v-3" /></symbol>
<symbol id="i-wrench" viewBox="0 0 24 24" fill="none" stroke="currentColor" stroke-width="2" stroke-linecap="round" stroke-linejoin="round"><path d="M14.7 6.3a1 1 0 0 0 0 1.4l1.6 1.6a1 1 0 0 0 1.4 0l3.77-3.77a6 6 0 0 1-7.94 7.94l-6.91 6.91a2.12 2.12 0 0 1-3-3l6.91-6.91a6 6 0 0 1 7.94-7.94l-3.76 3.76z" /></symbol>
<symbol id="i-package" viewBox="0 0 24 24" fill="none" stroke="currentColor" stroke-width="2" stroke-linecap="round" stroke-linejoin="round"><path d="M11 21.73a2 2 0 0 0 2 0l7-4A2 2 0 0 0 21 16V8a2 2 0 0 0-1-1.73l-7-4a2 2 0 0 0-2 0l-7 4A2 2 0 0 0 3 8v8a2 2 0 0 0 1 1.73z" /> <path d="M12 22V12" /> <path d="m3.3 7 7.703 4.734a2 2 0 0 0 1.994 0L20.7 7" /> <path d="m7.5 4.27 9 5.15" /></symbol>
<symbol id="i-shield-check" viewBox="0 0 24 24" fill="none" stroke="currentColor" stroke-width="2" stroke-linecap="round" stroke-linejoin="round"><path d="M20 13c0 5-3.5 7.5-7.66 8.95a1 1 0 0 1-.67-.01C7.5 20.5 4 18 4 13V6a1 1 0 0 1 1-1c2 0 4.5-1.2 6.24-2.72a1.17 1.17 0 0 1 1.52 0C14.51 3.81 17 5 19 5a1 1 0 0 1 1 1z" /> <path d="m9 12 2 2 4-4" /></symbol>
<symbol id="i-list-checks" viewBox="0 0 24 24" fill="none" stroke="currentColor" stroke-width="2" stroke-linecap="round" stroke-linejoin="round"><path d="m3 17 2 2 4-4" /> <path d="m3 7 2 2 4-4" /> <path d="M13 6h8" /> <path d="M13 12h8" /> <path d="M13 18h8" /></symbol>
<symbol id="i-history" viewBox="0 0 24 24" fill="none" stroke="currentColor" stroke-width="2" stroke-linecap="round" stroke-linejoin="round"><path d="M3 12a9 9 0 1 0 9-9 9.75 9.75 0 0 0-6.74 2.74L3 8" /> <path d="M3 3v5h5" /> <path d="M12 7v5l4 2" /></symbol>
<symbol id="i-star" viewBox="0 0 24 24" fill="none" stroke="currentColor" stroke-width="2" stroke-linecap="round" stroke-linejoin="round"><path d="M11.525 2.295a.53.53 0 0 1 .95 0l2.31 4.679a2.123 2.123 0 0 0 1.595 1.16l5.166.756a.53.53 0 0 1 .294.904l-3.736 3.638a2.123 2.123 0 0 0-.611 1.878l.882 5.14a.53.53 0 0 1-.771.56l-4.618-2.428a2.122 2.122 0 0 0-1.973 0L6.396 21.01a.53.53 0 0 1-.77-.56l.881-5.139a2.122 2.122 0 0 0-.611-1.879L2.16 9.795a.53.53 0 0 1 .294-.906l5.165-.755a2.122 2.122 0 0 0 1.597-1.16z" /></symbol>
<symbol id="i-filter" viewBox="0 0 24 24" fill="none" stroke="currentColor" stroke-width="2" stroke-linecap="round" stroke-linejoin="round"><polygon points="22 3 2 3 10 12.46 10 19 14 21 14 12.46 22 3" /></symbol>
<symbol id="i-repeat" viewBox="0 0 24 24" fill="none" stroke="currentColor" stroke-width="2" stroke-linecap="round" stroke-linejoin="round"><path d="m17 2 4 4-4 4" /> <path d="M3 11v-1a4 4 0 0 1 4-4h14" /> <path d="m7 22-4-4 4-4" /> <path d="M21 13v1a4 4 0 0 1-4 4H3" /></symbol>
<symbol id="i-info" viewBox="0 0 24 24" fill="none" stroke="currentColor" stroke-width="2" stroke-linecap="round" stroke-linejoin="round"><circle cx="12" cy="12" r="10" /> <path d="M12 16v-4" /> <path d="M12 8h.01" /></symbol>
<symbol id="i-triangle-alert" viewBox="0 0 24 24" fill="none" stroke="currentColor" stroke-width="2" stroke-linecap="round" stroke-linejoin="round"><path d="m21.73 18-8-14a2 2 0 0 0-3.48 0l-8 14A2 2 0 0 0 4 21h16a2 2 0 0 0 1.73-3" /> <path d="M12 9v4" /> <path d="M12 17h.01" /></symbol>
<symbol id="i-circle-check" viewBox="0 0 24 24" fill="none" stroke="currentColor" stroke-width="2" stroke-linecap="round" stroke-linejoin="round"><circle cx="12" cy="12" r="10" /> <path d="m9 12 2 2 4-4" /></symbol>
<symbol id="i-circle-x" viewBox="0 0 24 24" fill="none" stroke="currentColor" stroke-width="2" stroke-linecap="round" stroke-linejoin="round"><circle cx="12" cy="12" r="10" /> <path d="m15 9-6 6" /> <path d="m9 9 6 6" /></symbol>
<symbol id="i-moon" viewBox="0 0 24 24" fill="none" stroke="currentColor" stroke-width="2" stroke-linecap="round" stroke-linejoin="round"><path d="M12 3a6 6 0 0 0 9 9 9 9 0 1 1-9-9Z" /></symbol>
<symbol id="i-sun" viewBox="0 0 24 24" fill="none" stroke="currentColor" stroke-width="2" stroke-linecap="round" stroke-linejoin="round"><circle cx="12" cy="12" r="4" /> <path d="M12 2v2" /> <path d="M12 20v2" /> <path d="m4.93 4.93 1.41 1.41" /> <path d="m17.66 17.66 1.41 1.41" /> <path d="M2 12h2" /> <path d="M20 12h2" /> <path d="m6.34 17.66-1.41 1.41" /> <path d="m19.07 4.93-1.41 1.41" /></symbol>
<symbol id="i-menu" viewBox="0 0 24 24" fill="none" stroke="currentColor" stroke-width="2" stroke-linecap="round" stroke-linejoin="round"><line x1="4" x2="20" y1="12" y2="12" /> <line x1="4" x2="20" y1="6" y2="6" /> <line x1="4" x2="20" y1="18" y2="18" /></symbol>
<symbol id="i-house" viewBox="0 0 24 24" fill="none" stroke="currentColor" stroke-width="2" stroke-linecap="round" stroke-linejoin="round"><path d="M15 21v-8a1 1 0 0 0-1-1h-4a1 1 0 0 0-1 1v8" /> <path d="M3 10a2 2 0 0 1 .709-1.528l7-5.999a2 2 0 0 1 2.582 0l7 5.999A2 2 0 0 1 21 10v9a2 2 0 0 1-2 2H5a2 2 0 0 1-2-2z" /></symbol>
<symbol id="i-building-2" viewBox="0 0 24 24" fill="none" stroke="currentColor" stroke-width="2" stroke-linecap="round" stroke-linejoin="round"><path d="M6 22V4a2 2 0 0 1 2-2h8a2 2 0 0 1 2 2v18Z" /> <path d="M6 12H4a2 2 0 0 0-2 2v6a2 2 0 0 0 2 2h2" /> <path d="M18 9h2a2 2 0 0 1 2 2v9a2 2 0 0 1-2 2h-2" /> <path d="M10 6h4" /> <path d="M10 10h4" /> <path d="M10 14h4" /> <path d="M10 18h4" /></symbol>
<symbol id="i-file-up" viewBox="0 0 24 24" fill="none" stroke="currentColor" stroke-width="2" stroke-linecap="round" stroke-linejoin="round"><path d="M15 2H6a2 2 0 0 0-2 2v16a2 2 0 0 0 2 2h12a2 2 0 0 0 2-2V7Z" /> <path d="M14 2v4a2 2 0 0 0 2 2h4" /> <path d="M12 12v6" /> <path d="m15 15-3-3-3 3" /></symbol>
<symbol id="i-book-open" viewBox="0 0 24 24" fill="none" stroke="currentColor" stroke-width="2" stroke-linecap="round" stroke-linejoin="round"><path d="M12 7v14" /> <path d="M3 18a1 1 0 0 1-1-1V4a1 1 0 0 1 1-1h5a4 4 0 0 1 4 4 4 4 0 0 1 4-4h5a1 1 0 0 1 1 1v13a1 1 0 0 1-1 1h-6a3 3 0 0 0-3 3 3 3 0 0 0-3-3z" /></symbol>
<symbol id="i-timer" viewBox="0 0 24 24" fill="none" stroke="currentColor" stroke-width="2" stroke-linecap="round" stroke-linejoin="round"><line x1="10" x2="14" y1="2" y2="2" /> <line x1="12" x2="15" y1="14" y2="11" /> <circle cx="12" cy="14" r="8" /></symbol>
<symbol id="i-ban" viewBox="0 0 24 24" fill="none" stroke="currentColor" stroke-width="2" stroke-linecap="round" stroke-linejoin="round"><circle cx="12" cy="12" r="10" /> <path d="m4.9 4.9 14.2 14.2" /></symbol>
<symbol id="i-hourglass" viewBox="0 0 24 24" fill="none" stroke="currentColor" stroke-width="2" stroke-linecap="round" stroke-linejoin="round"><path d="M5 22h14" /> <path d="M5 2h14" /> <path d="M17 22v-4.172a2 2 0 0 0-.586-1.414L12 12l-4.414 4.414A2 2 0 0 0 7 17.828V22" /> <path d="M7 2v4.172a2 2 0 0 0 .586 1.414L12 12l4.414-4.414A2 2 0 0 0 17 6.172V2" /></symbol>
<symbol id="i-projector" viewBox="0 0 24 24" fill="none" stroke="currentColor" stroke-width="2" stroke-linecap="round" stroke-linejoin="round"><path d="M5 7 3 5" /> <path d="M9 6V3" /> <path d="m13 7 2-2" /> <circle cx="9" cy="13" r="3" /> <path d="M11.83 12H20a2 2 0 0 1 2 2v4a2 2 0 0 1-2 2H4a2 2 0 0 1-2-2v-4a2 2 0 0 1 2-2h2.17" /> <path d="M16 16h2" /></symbol>
<symbol id="i-wifi" viewBox="0 0 24 24" fill="none" stroke="currentColor" stroke-width="2" stroke-linecap="round" stroke-linejoin="round"><path d="M12 20h.01" /> <path d="M2 8.82a15 15 0 0 1 20 0" /> <path d="M5 12.859a10 10 0 0 1 14 0" /> <path d="M8.5 16.429a5 5 0 0 1 7 0" /></symbol>
<symbol id="i-snowflake" viewBox="0 0 24 24" fill="none" stroke="currentColor" stroke-width="2" stroke-linecap="round" stroke-linejoin="round"><line x1="2" x2="22" y1="12" y2="12" /> <line x1="12" x2="12" y1="2" y2="22" /> <path d="m20 16-4-4 4-4" /> <path d="m4 8 4 4-4 4" /> <path d="m16 4-4 4-4-4" /> <path d="m8 20 4-4 4 4" /></symbol>
<symbol id="i-accessibility" viewBox="0 0 24 24" fill="none" stroke="currentColor" stroke-width="2" stroke-linecap="round" stroke-linejoin="round"><circle cx="16" cy="4" r="1" /> <path d="m18 19 1-7-6 1" /> <path d="m5 8 3-3 5.5 3-2.36 3.5" /> <path d="M4.24 14.5a5 5 0 0 0 6.88 6" /> <path d="M13.76 17.5a5 5 0 0 0-6.88-6" /></symbol>
<symbol id="i-video" viewBox="0 0 24 24" fill="none" stroke="currentColor" stroke-width="2" stroke-linecap="round" stroke-linejoin="round"><path d="m16 13 5.223 3.482a.5.5 0 0 0 .777-.416V7.87a.5.5 0 0 0-.752-.432L16 10.5" /> <rect x="2" y="6" width="14" height="12" rx="2" /></symbol>
<symbol id="i-volume-2" viewBox="0 0 24 24" fill="none" stroke="currentColor" stroke-width="2" stroke-linecap="round" stroke-linejoin="round"><path d="M11 4.702a.705.705 0 0 0-1.203-.498L6.413 7.587A1.4 1.4 0 0 1 5.416 8H3a1 1 0 0 0-1 1v6a1 1 0 0 0 1 1h2.416a1.4 1.4 0 0 1 .997.413l3.383 3.384A.705.705 0 0 0 11 19.298z" /> <path d="M16 9a5 5 0 0 1 0 6" /> <path d="M19.364 18.364a9 9 0 0 0 0-12.728" /></symbol>
<symbol id="i-lightbulb" viewBox="0 0 24 24" fill="none" stroke="currentColor" stroke-width="2" stroke-linecap="round" stroke-linejoin="round"><path d="M15 14c.2-1 .7-1.7 1.5-2.5 1-.9 1.5-2.2 1.5-3.5A6 6 0 0 0 6 8c0 1 .2 2.2 1.5 3.5.7.7 1.3 1.5 1.5 2.5" /> <path d="M9 18h6" /> <path d="M10 22h4" /></symbol>
<symbol id="i-pencil" viewBox="0 0 24 24" fill="none" stroke="currentColor" stroke-width="2" stroke-linecap="round" stroke-linejoin="round"><path d="M21.174 6.812a1 1 0 0 0-3.986-3.987L3.842 16.174a2 2 0 0 0-.5.83l-1.321 4.352a.5.5 0 0 0 .623.622l4.353-1.32a2 2 0 0 0 .83-.497z" /> <path d="m15 5 4 4" /></symbol>
<symbol id="i-trash-2" viewBox="0 0 24 24" fill="none" stroke="currentColor" stroke-width="2" stroke-linecap="round" stroke-linejoin="round"><path d="M3 6h18" /> <path d="M19 6v14c0 1-1 2-2 2H7c-1 0-2-1-2-2V6" /> <path d="M8 6V4c0-1 1-2 2-2h4c1 0 2 1 2 2v2" /> <line x1="10" x2="10" y1="11" y2="17" /> <line x1="14" x2="14" y1="11" y2="17" /></symbol>
<symbol id="i-external-link" viewBox="0 0 24 24" fill="none" stroke="currentColor" stroke-width="2" stroke-linecap="round" stroke-linejoin="round"><path d="M15 3h6v6" /> <path d="M10 14 21 3" /> <path d="M18 13v6a2 2 0 0 1-2 2H5a2 2 0 0 1-2-2V8a2 2 0 0 1 2-2h6" /></symbol>
<symbol id="i-download" viewBox="0 0 24 24" fill="none" stroke="currentColor" stroke-width="2" stroke-linecap="round" stroke-linejoin="round"><path d="M21 15v4a2 2 0 0 1-2 2H5a2 2 0 0 1-2-2v-4" /> <polyline points="7 10 12 15 17 10" /> <line x1="12" x2="12" y1="15" y2="3" /></symbol>
<symbol id="i-copy" viewBox="0 0 24 24" fill="none" stroke="currentColor" stroke-width="2" stroke-linecap="round" stroke-linejoin="round"><rect width="14" height="14" x="8" y="8" rx="2" ry="2" /> <path d="M4 16c-1.1 0-2-.9-2-2V4c0-1.1.9-2 2-2h10c1.1 0 2 .9 2 2" /></symbol>
<symbol id="i-eye" viewBox="0 0 24 24" fill="none" stroke="currentColor" stroke-width="2" stroke-linecap="round" stroke-linejoin="round"><path d="M2.062 12.348a1 1 0 0 1 0-.696 10.75 10.75 0 0 1 19.876 0 1 1 0 0 1 0 .696 10.75 10.75 0 0 1-19.876 0" /> <circle cx="12" cy="12" r="3" /></symbol>
<symbol id="i-lock" viewBox="0 0 24 24" fill="none" stroke="currentColor" stroke-width="2" stroke-linecap="round" stroke-linejoin="round"><rect width="18" height="11" x="3" y="11" rx="2" ry="2" /> <path d="M7 11V7a5 5 0 0 1 10 0v4" /></symbol>
<symbol id="i-map" viewBox="0 0 24 24" fill="none" stroke="currentColor" stroke-width="2" stroke-linecap="round" stroke-linejoin="round"><path d="M14.106 5.553a2 2 0 0 0 1.788 0l3.659-1.83A1 1 0 0 1 21 4.619v12.764a1 1 0 0 1-.553.894l-4.553 2.277a2 2 0 0 1-1.788 0l-4.212-2.106a2 2 0 0 0-1.788 0l-3.659 1.83A1 1 0 0 1 3 19.381V6.618a1 1 0 0 1 .553-.894l4.553-2.277a2 2 0 0 1 1.788 0z" /> <path d="M15 5.764v15" /> <path d="M9 3.236v15" /></symbol>
<symbol id="i-layers" viewBox="0 0 24 24" fill="none" stroke="currentColor" stroke-width="2" stroke-linecap="round" stroke-linejoin="round"><path d="m12.83 2.18a2 2 0 0 0-1.66 0L2.6 6.08a1 1 0 0 0 0 1.83l8.58 3.91a2 2 0 0 0 1.66 0l8.58-3.9a1 1 0 0 0 0-1.83Z" /> <path d="m22 17.65-9.17 4.16a2 2 0 0 1-1.66 0L2 17.65" /> <path d="m22 12.65-9.17 4.16a2 2 0 0 1-1.66 0L2 12.65" /></symbol>
<symbol id="i-grid-3x3" viewBox="0 0 24 24" fill="none" stroke="currentColor" stroke-width="2" stroke-linecap="round" stroke-linejoin="round"><rect width="18" height="18" x="3" y="3" rx="2" /> <path d="M3 9h18" /> <path d="M3 15h18" /> <path d="M9 3v18" /> <path d="M15 3v18" /></symbol>
<symbol id="i-rows-3" viewBox="0 0 24 24" fill="none" stroke="currentColor" stroke-width="2" stroke-linecap="round" stroke-linejoin="round"><rect width="18" height="18" x="3" y="3" rx="2" /> <path d="M21 9H3" /> <path d="M21 15H3" /></symbol>
<symbol id="i-inbox" viewBox="0 0 24 24" fill="none" stroke="currentColor" stroke-width="2" stroke-linecap="round" stroke-linejoin="round"><polyline points="22 12 16 12 14 15 10 15 8 12 2 12" /> <path d="M5.45 5.11 2 12v6a2 2 0 0 0 2 2h16a2 2 0 0 0 2-2v-6l-3.45-6.89A2 2 0 0 0 16.76 4H7.24a2 2 0 0 0-1.79 1.11z" /></symbol>
<symbol id="i-circle-dot" viewBox="0 0 24 24" fill="none" stroke="currentColor" stroke-width="2" stroke-linecap="round" stroke-linejoin="round"><circle cx="12" cy="12" r="10" /> <circle cx="12" cy="12" r="1" /></symbol>
<symbol id="i-zap" viewBox="0 0 24 24" fill="none" stroke="currentColor" stroke-width="2" stroke-linecap="round" stroke-linejoin="round"><path d="M4 14a1 1 0 0 1-.78-1.63l9.9-10.2a.5.5 0 0 1 .86.46l-1.92 6.02A1 1 0 0 0 13 10h7a1 1 0 0 1 .78 1.63l-9.9 10.2a.5.5 0 0 1-.86-.46l1.92-6.02A1 1 0 0 0 11 14z" /></symbol>
<symbol id="i-arrow-left" viewBox="0 0 24 24" fill="none" stroke="currentColor" stroke-width="2" stroke-linecap="round" stroke-linejoin="round"><path d="m12 19-7-7 7-7" /> <path d="M19 12H5" /></symbol>
<symbol id="i-arrow-right" viewBox="0 0 24 24" fill="none" stroke="currentColor" stroke-width="2" stroke-linecap="round" stroke-linejoin="round"><path d="M5 12h14" /> <path d="m12 5 7 7-7 7" /></symbol>
<symbol id="i-rotate-ccw" viewBox="0 0 24 24" fill="none" stroke="currentColor" stroke-width="2" stroke-linecap="round" stroke-linejoin="round"><path d="M3 12a9 9 0 1 0 9-9 9.75 9.75 0 0 0-6.74 2.74L3 8" /> <path d="M3 3v5h5" /></symbol>
<symbol id="i-log-in" viewBox="0 0 24 24" fill="none" stroke="currentColor" stroke-width="2" stroke-linecap="round" stroke-linejoin="round"><path d="M15 3h4a2 2 0 0 1 2 2v14a2 2 0 0 1-2 2h-4" /> <polyline points="10 17 15 12 10 7" /> <line x1="15" x2="3" y1="12" y2="12" /></symbol>
<symbol id="i-badge-check" viewBox="0 0 24 24" fill="none" stroke="currentColor" stroke-width="2" stroke-linecap="round" stroke-linejoin="round"><path d="M3.85 8.62a4 4 0 0 1 4.78-4.77 4 4 0 0 1 6.74 0 4 4 0 0 1 4.78 4.78 4 4 0 0 1 0 6.74 4 4 0 0 1-4.77 4.78 4 4 0 0 1-6.75 0 4 4 0 0 1-4.78-4.77 4 4 0 0 1 0-6.76Z" /> <path d="m9 12 2 2 4-4" /></symbol>
<symbol id="i-user-round-check" viewBox="0 0 24 24" fill="none" stroke="currentColor" stroke-width="2" stroke-linecap="round" stroke-linejoin="round"><path d="M2 21a8 8 0 0 1 13.292-6" /> <circle cx="10" cy="8" r="5" /> <path d="m16 19 2 2 4-4" /></symbol>
<symbol id="i-scan" viewBox="0 0 24 24" fill="none" stroke="currentColor" stroke-width="2" stroke-linecap="round" stroke-linejoin="round"><path d="M3 7V5a2 2 0 0 1 2-2h2" /> <path d="M17 3h2a2 2 0 0 1 2 2v2" /> <path d="M21 17v2a2 2 0 0 1-2 2h-2" /> <path d="M7 21H5a2 2 0 0 1-2-2v-2" /></symbol>
<symbol id="i-clipboard-list" viewBox="0 0 24 24" fill="none" stroke="currentColor" stroke-width="2" stroke-linecap="round" stroke-linejoin="round"><rect width="8" height="4" x="8" y="2" rx="1" ry="1" /> <path d="M16 4h2a2 2 0 0 1 2 2v14a2 2 0 0 1-2 2H6a2 2 0 0 1-2-2V6a2 2 0 0 1 2-2h2" /> <path d="M12 11h4" /> <path d="M12 16h4" /> <path d="M8 11h.01" /> <path d="M8 16h.01" /></symbol>
<symbol id="i-gauge" viewBox="0 0 24 24" fill="none" stroke="currentColor" stroke-width="2" stroke-linecap="round" stroke-linejoin="round"><path d="m12 14 4-4" /> <path d="M3.34 19a10 10 0 1 1 17.32 0" /></symbol>
<symbol id="i-flame" viewBox="0 0 24 24" fill="none" stroke="currentColor" stroke-width="2" stroke-linecap="round" stroke-linejoin="round"><path d="M8.5 14.5A2.5 2.5 0 0 0 11 12c0-1.38-.5-2-1-3-1.072-2.143-.224-4.054 2-6 .5 2.5 2 4.9 4 6.5 2 1.6 3 3.5 3 5.5a7 7 0 1 1-14 0c0-1.153.433-2.294 1-3a2.5 2.5 0 0 0 2.5 2.5z" /></symbol>
<symbol id="i-circle-alert" viewBox="0 0 24 24" fill="none" stroke="currentColor" stroke-width="2" stroke-linecap="round" stroke-linejoin="round"><circle cx="12" cy="12" r="10" /> <line x1="12" x2="12" y1="8" y2="12" /> <line x1="12" x2="12.01" y1="16" y2="16" /></symbol>
<symbol id="i-undo-2" viewBox="0 0 24 24" fill="none" stroke="currentColor" stroke-width="2" stroke-linecap="round" stroke-linejoin="round"><path d="M9 14 4 9l5-5" /> <path d="M4 9h10.5a5.5 5.5 0 0 1 5.5 5.5a5.5 5.5 0 0 1-5.5 5.5H11" /></symbol>
<symbol id="i-building" viewBox="0 0 24 24" fill="none" stroke="currentColor" stroke-width="2" stroke-linecap="round" stroke-linejoin="round"><rect width="16" height="20" x="4" y="2" rx="2" ry="2" /> <path d="M9 22v-4h6v4" /> <path d="M8 6h.01" /> <path d="M16 6h.01" /> <path d="M12 6h.01" /> <path d="M12 10h.01" /> <path d="M12 14h.01" /> <path d="M16 10h.01" /> <path d="M16 14h.01" /> <path d="M8 10h.01" /> <path d="M8 14h.01" /></symbol>
<symbol id="i-graduation-cap" viewBox="0 0 24 24" fill="none" stroke="currentColor" stroke-width="2" stroke-linecap="round" stroke-linejoin="round"><path d="M21.42 10.922a1 1 0 0 0-.019-1.838L12.83 5.18a2 2 0 0 0-1.66 0L2.6 9.08a1 1 0 0 0 0 1.832l8.57 3.908a2 2 0 0 0 1.66 0z" /> <path d="M22 10v6" /> <path d="M6 12.5V16a6 3 0 0 0 12 0v-3.5" /></symbol>
<symbol id="i-flask-conical" viewBox="0 0 24 24" fill="none" stroke="currentColor" stroke-width="2" stroke-linecap="round" stroke-linejoin="round"><path d="M10 2v7.527a2 2 0 0 1-.211.896L4.72 20.55a1 1 0 0 0 .9 1.45h12.76a1 1 0 0 0 .9-1.45l-5.069-10.127A2 2 0 0 1 14 9.527V2" /> <path d="M8.5 2h7" /> <path d="M7 16h10" /></symbol>
<symbol id="i-dumbbell" viewBox="0 0 24 24" fill="none" stroke="currentColor" stroke-width="2" stroke-linecap="round" stroke-linejoin="round"><path d="M14.4 14.4 9.6 9.6" /> <path d="M18.657 21.485a2 2 0 1 1-2.829-2.828l-1.767 1.768a2 2 0 1 1-2.829-2.829l6.364-6.364a2 2 0 1 1 2.829 2.829l-1.768 1.767a2 2 0 1 1 2.828 2.829z" /> <path d="m21.5 21.5-1.4-1.4" /> <path d="M3.9 3.9 2.5 2.5" /> <path d="M6.404 12.768a2 2 0 1 1-2.829-2.829l1.768-1.767a2 2 0 1 1-2.828-2.829l2.828-2.828a2 2 0 1 1 2.829 2.828l1.767-1.768a2 2 0 1 1 2.829 2.829z" /></symbol>
<symbol id="i-car" viewBox="0 0 24 24" fill="none" stroke="currentColor" stroke-width="2" stroke-linecap="round" stroke-linejoin="round"><path d="M19 17h2c.6 0 1-.4 1-1v-3c0-.9-.7-1.7-1.5-1.9C18.7 10.6 16 10 16 10s-1.3-1.4-2.2-2.3c-.5-.4-1.1-.7-1.8-.7H5c-.6 0-1.1.4-1.4.9l-1.4 2.9A3.7 3.7 0 0 0 2 12v4c0 .6.4 1 1 1h2" /> <circle cx="7" cy="17" r="2" /> <path d="M9 17h6" /> <circle cx="17" cy="17" r="2" /></symbol>
<symbol id="i-hammer" viewBox="0 0 24 24" fill="none" stroke="currentColor" stroke-width="2" stroke-linecap="round" stroke-linejoin="round"><path d="m15 12-8.373 8.373a1 1 0 1 1-3-3L12 9" /> <path d="m18 15 4-4" /> <path d="m21.5 11.5-1.914-1.914A2 2 0 0 1 19 8.172V7l-2.26-2.26a6 6 0 0 0-4.202-1.756L9 2.96l.92.82A6.18 6.18 0 0 1 12 8.4V10l2 2h1.172a2 2 0 0 1 1.414.586L18.5 14.5" /></symbol>
<symbol id="i-tag" viewBox="0 0 24 24" fill="none" stroke="currentColor" stroke-width="2" stroke-linecap="round" stroke-linejoin="round"><path d="M12.586 2.586A2 2 0 0 0 11.172 2H4a2 2 0 0 0-2 2v7.172a2 2 0 0 0 .586 1.414l8.704 8.704a2.426 2.426 0 0 0 3.42 0l6.58-6.58a2.426 2.426 0 0 0 0-3.42z" /> <circle cx="7.5" cy="7.5" r=".5" fill="currentColor" /></symbol>
<symbol id="i-sparkles" viewBox="0 0 24 24" fill="none" stroke="currentColor" stroke-width="2" stroke-linecap="round" stroke-linejoin="round"><path d="M9.937 15.5A2 2 0 0 0 8.5 14.063l-6.135-1.582a.5.5 0 0 1 0-.962L8.5 9.936A2 2 0 0 0 9.937 8.5l1.582-6.135a.5.5 0 0 1 .963 0L14.063 8.5A2 2 0 0 0 15.5 9.937l6.135 1.581a.5.5 0 0 1 0 .964L15.5 14.063a2 2 0 0 0-1.437 1.437l-1.582 6.135a.5.5 0 0 1-.963 0z" /> <path d="M20 3v4" /> <path d="M22 5h-4" /> <path d="M4 17v2" /> <path d="M5 18H3" /></symbol>
<symbol id="i-circle-pause" viewBox="0 0 24 24" fill="none" stroke="currentColor" stroke-width="2" stroke-linecap="round" stroke-linejoin="round"><circle cx="12" cy="12" r="10" /> <line x1="10" x2="10" y1="15" y2="9" /> <line x1="14" x2="14" y1="15" y2="9" /></symbol>
<symbol id="i-square-check-big" viewBox="0 0 24 24" fill="none" stroke="currentColor" stroke-width="2" stroke-linecap="round" stroke-linejoin="round"><path d="M21 10.5V19a2 2 0 0 1-2 2H5a2 2 0 0 1-2-2V5a2 2 0 0 1 2-2h12.5" /> <path d="m9 11 3 3L22 4" /></symbol>
<symbol id="i-mouse-pointer-click" viewBox="0 0 24 24" fill="none" stroke="currentColor" stroke-width="2" stroke-linecap="round" stroke-linejoin="round"><path d="M14 4.1 12 6" /> <path d="m5.1 8-2.9-.8" /> <path d="m6 12-1.9 2" /> <path d="M7.2 2.2 8 5.1" /> <path d="M9.037 9.69a.498.498 0 0 1 .653-.653l11 4.5a.5.5 0 0 1-.074.949l-4.349 1.041a1 1 0 0 0-.74.739l-1.04 4.35a.5.5 0 0 1-.95.074z" /></symbol>
</svg>
